<?xml version="1.0" encoding="utf-8"?><!-- Uploaded to: SVG Repo, www.svgrepo.com, Generator: SVG Repo Mixer Tools -->
<svg width="800px" height="800px" viewBox="0 0 24 24" id="launch" xmlns="http://www.w3.org/2000/svg" class="icon multi-color"><title style="stroke-width: 2;">launch</title><path id="tertiary-fill" d="M9,21H5l.81-3.25a2,2,0,0,1,.83-1.18l1.52-1M15,21h4l-.81-3.25a2,2,0,0,0-.83-1.18l-1.52-1" style="fill: #b7b7b7; stroke-width: 2;"></path><path id="secondary-fill" d="M15,21H9L7.77,13a10,10,0,0,1,2.81-8.59l.71-.71a1,1,0,0,1,1.42,0l.71.71A10,10,0,0,1,16.23,13Z" style="fill: rgb(44, 169, 188); stroke-width: 2;"></path><path id="primary-stroke" d="M9,21H5l.81-3.25a2,2,0,0,1,.83-1.18l1.52-1M15,21h4l-.81-3.25a2,2,0,0,0-.83-1.18l-1.52-1M16.23,13a10,10,0,0,0-2.81-8.59l-.71-.71a1,1,0,0,0-1.42,0l-.71.71A10,10,0,0,0,7.77,13L9,21h6ZM12,10v3" style="fill: none; stroke: rgb(0, 0, 0); stroke-linecap: round; stroke-linejoin: round; stroke-width: 2;"></path></svg>